HIERARCHY
ROOT Hips
{
  OFFSET 58.7476 104.83 -19.0822
  CHANNELS 6 Xposition Yposition Zposition Zrotation Xrotation Yrotation
  JOINT ToSpine
  {
    OFFSET -2.69724 7.43032 -0.144315
    CHANNELS 3 Zrotation Xrotation Yrotation
    JOINT Spine
    {
      OFFSET -0.0310711 10.7595 1.96963
      CHANNELS 3 Zrotation Xrotation Yrotation
      JOINT Spine1
      {
        OFFSET 19.9056 3.91189 0.764692
        CHANNELS 3 Zrotation Xrotation Yrotation
        JOINT Neck
        {
          OFFSET 25.9749 7.03908 -0.130764
          CHANNELS 3 Zrotation Xrotation Yrotation
          JOINT Head
          {
            OFFSET 9.52751 0.295786 -0.907742
            CHANNELS 3 Zrotation Xrotation Yrotation
            End Site
            {
              OFFSET 16.4037 0.713936 2.7358
            }
          }
        }
        JOINT LeftShoulder
        {
          OFFSET 17.7449 4.33886 11.7777
          CHANNELS 3 Zrotation Xrotation Yrotation
          JOINT LeftArm
          {
            OFFSET 0.911315 1.27913 9.80584
            CHANNELS 3 Zrotation Xrotation Yrotation
            JOINT LeftForeArm
            {
              OFFSET 28.6126 1.18197 -3.53199
              CHANNELS 3 Zrotation Xrotation Yrotation
              JOINT LeftHand
              {
                OFFSET 27.5088 0.0218783 0.327423
                CHANNELS 3 Zrotation Xrotation Yrotation
                End Site
                {
                  OFFSET 18.6038 -0.000155887 0.382096
                }
              }
            }
          }
        }
        JOINT RightShoulder
        {
          OFFSET 17.1009 2.89543 -12.2328
          CHANNELS 3 Zrotation Xrotation Yrotation
          JOINT RightArm
          {
            OFFSET 1.4228 0.178766 -10.211
            CHANNELS 3 Zrotation Xrotation Yrotation
            JOINT RightForeArm
            {
              OFFSET 28.733 1.87905 2.64907
              CHANNELS 3 Zrotation Xrotation Yrotation
              JOINT RightHand
              {
                OFFSET 27.4588 0.290562 -0.101845
                CHANNELS 3 Zrotation Xrotation Yrotation
                End Site
                {
                  OFFSET 17.8396 -0.255518 -0.000602873
                }
              }
            }
          }
        }
      }
    }
  }
  JOINT LeftUpLeg
  {
    OFFSET -5.61296 -2.22332 -10.2353
    CHANNELS 3 Zrotation Xrotation Yrotation
    JOINT LeftLeg
    {
      OFFSET 2.56703 -44.7417 -7.93097
      CHANNELS 3 Zrotation Xrotation Yrotation
      JOINT LeftFoot
      {
        OFFSET 3.16933 -46.5642 -3.96578
        CHANNELS 3 Zrotation Xrotation Yrotation
        JOINT LeftToeBase
        {
          OFFSET 0.346054 -6.02161 12.8035
          CHANNELS 3 Zrotation Xrotation Yrotation
          End Site
          {
            OFFSET 0.134235 -1.35082 5.13018
          }
        }
      }
    }
  }
  JOINT RightUpLeg
  {
    OFFSET -5.7928 -1.72406 10.6446
    CHANNELS 3 Zrotation Xrotation Yrotation
    JOINT RightLeg
    {
      OFFSET -2.57161 -44.7178 -7.85259
      CHANNELS 3 Zrotation Xrotation Yrotation
      JOINT RightFoot
      {
        OFFSET -3.10148 -46.5936 -4.03391
        CHANNELS 3 Zrotation Xrotation Yrotation
        JOINT RightToeBase
        {
          OFFSET -0.0828122 -6.13587 12.8035
          CHANNELS 3 Zrotation Xrotation Yrotation
          End Site
          {
            OFFSET -0.131328 -1.35082 5.13018
          }
        }
      }
    }
  }
}
MOTION
Frames:	8
Frame Time:	0.0333333
-70.4518 102.364 48.2134 76.8242 1.37588 0.859936 -70.1915 0 88.8779 84.7242 75.0823 -0.23953 2.25112 23.8954 3.51611 -138.54 12.4455 170.589 -142.579 47.1462 161.538 2.60398 -3.01907 -35.1259 -108.457 46.1904 -75.2195 -13.7707 52.1278 9.96059 -0.712249 0.00337883 3.8683 0.457057 -1.44642 46.0642 -63.5237 -33.8672 101.177 0.641139 4.82392 25.0144 9.35356 -1.64474 -21.6718 -41.9171 -6.26675 92.3194 1.21234 21.7549 3.81393 7.6113 16.3548 -0.930297 -8.31975 -22.9505 8.63417 -71.1471 3.52361 83.9692 1.8541 42.5081 2.23438 -6.21376 -0.464112 0.932085 -4.37297 -23.2992 0.175745 
-66.6742 102.827 47.5917 76.9539 2.70287 0.834473 -70.1915 0 88.8779 84.8105 74.861 -1.5607 1.5583 23.56 3.68405 -137.683 12.5961 171.256 -141.93 47.1676 161.993 2.54156 -3.23672 -34.9203 -107.859 45.9463 -76.9454 -13.491 51.8121 9.60152 -0.810727 3.57579e-005 3.97917 0.481654 -1.54774 45.1186 -62.6366 -36.3949 100.899 1.08368 3.97525 24.3785 9.62498 -1.46733 -18.851 -43.5757 -7.62106 92.1084 1.68444 22.9704 2.682 8.04001 16.9768 -1.04004 -9.58167 -25.4686 6.15752 -67.7562 1.41788 81.8571 2.26039 49.9885 -0.287744 -5.03587 1.89641 0.728922 -2.35543 -8.66184 12.7881 
-63.2363 103.159 47.0204 77.3424 3.50845 0.238925 -70.1915 0 88.8779 86.2181 74.913 -4.71772 0.943446 23.3444 4.18547 -137.837 12.6034 172.53 -142.651 47.0827 162.05 2.52965 -3.26207 -34.8211 -107.008 46.0574 -79.515 -12.8617 51.2136 8.71033 -0.878394 -0.000730481 3.8609 0.457022 -1.46781 45.1088 -63.0316 -37.5024 99.8742 1.57153 2.45454 23.3995 9.05328 -1.18191 -16.3055 -45.8306 -8.72427 92.6311 1.74979 23.0925 2.28365 9.45851 16.4613 -1.41062 -10.225 -26.6336 4.95757 -63.0426 -0.305544 82.3198 3.42814 58.733 -1.7514 -4.85131 6.93019 0.55902 -2.19759 -9.65316 8.28321 
-59.9163 103.407 46.588 78.248 4.14278 -0.935305 -70.1915 0 88.8779 87.5851 75.1323 -8.68659 0.816391 23.1591 5.18856 -138.135 12.1487 174.193 -142.994 46.3166 162.077 2.56745 -3.25656 -35.4072 -105.505 45.5962 -83.3076 -11.9568 50.1887 7.25985 -0.00110427 0.0150483 3.65367 0.6572 -2.11454 45.2189 -63.7008 -37.6018 100.315 1.52886 -1.1043 21.1617 10.1543 -1.07926 -13.2611 -48.934 -10.0645 93.042 1.53868 22.6794 2.16986 10.3188 15.6807 -1.62144 -10.9205 -28.1035 4.30047 -58.3437 -1.4674 84.1484 5.09201 66.4234 -4.61172 -5.35286 8.24939 0.617773 -3.13059 -16.8196 -0.497388 
-56.5049 103.813 45.9925 79.0185 5.36422 -0.724813 -70.1915 0 88.8779 89.1114 74.7212 -10.925 1.19669 22.6255 5.40566 -137.398 11.862 175.312 -142.47 45.6944 162.277 2.60427 -3.11465 -35.4719 -103.587 45.466 -87.583 -11.1639 50.1813 5.73936 0.868681 0.0150794 2.25501 0.667594 -2.13147 45.6031 -67.1368 -37.4663 98.7424 1.19478 -7.03441 18.8236 10.0973 -0.699168 -8.79061 -51.9327 -10.473 93.2972 1.66049 22.4744 1.08775 10.6418 13.8034 -1.66652 -10.7967 -26.8788 2.30039 -54.4047 -1.59766 84.8814 6.79456 70.7944 -6.59599 -5.61442 6.65591 0.703262 -2.89916 -15.6694 1.18961 
-53.085 104.137 45.303 78.9109 6.47892 0.203676 -70.1915 0 88.8779 88.8276 74.3538 -9.74079 1.38439 22.3269 4.89238 -135.872 11.8786 176.047 -142.217 45.5686 162.676 2.55286 -3.11965 -34.682 -101.686 46.2287 -91.0497 -8.8979 48.9289 2.39582 1.46752 0.0227855 2.56885 0.519123 -1.65149 45.7478 -71.2605 -38.0126 95.5501 0.890206 -11.295 17.3964 9.3576 -0.417072 -5.82526 -53.6123 -10.132 93.7262 1.94151 23.022 0.0565091 10.7505 10.7725 -1.62998 -10.2287 -24.3516 -0.747223 -50.1191 -0.584435 85.7514 8.24753 72.7298 -6.66587 -5.81734 5.63551 0.760332 -2.67543 -14.4084 1.41055 
-49.8799 104.395 44.7158 78.8938 8.45555 1.24692 -70.1915 0 88.8779 90.9705 73.617 -11.9708 0.457157 21.4616 5.6036 -135.134 12.0191 176.664 -142.983 45.8035 162.988 2.52643 -2.99238 -33.8321 -99.5551 47.0318 -94.0568 -5.62726 47.8816 -2.46407 2.85677 0.0117326 1.80239 0.361362 -1.14821 45.7313 -74.0759 -38.6903 92.6911 0.341233 -12.3063 16.6233 9.22641 -0.444109 -6.26748 -55.3277 -9.88925 93.9676 2.25766 23.7285 -2.31109 10.4788 8.98353 -1.53959 -10.1817 -23.9637 -1.55913 -46.5244 0.317319 86.1548 8.36266 72.3124 -5.34417 -6.41535 4.56706 0.878359 -2.79798 -15.1256 -1.62654 
-46.5256 104.507 44.1411 78.7627 11.5809 2.77865 -70.1915 0 88.8779 93.0621 72.6382 -14.02 -0.805296 20.3114 6.41051 -133.722 12.8333 176.476 -143.434 46.8755 163.243 2.48707 -2.95904 -33.1124 -95.4458 47.5857 -98.3461 -2.64607 45.5663 -7.34647 3.25936 0.00702564 1.64319 0.31777 -1.00544 46.1455 -78.1883 -38.6691 88.459 -0.382885 -13.9008 15.5081 9.21722 -0.369155 -5.27817 -56.6889 -9.41304 94.2753 2.82736 25.2711 -6.13971 10.4596 7.53727 -1.50954 -10.5948 -24.723 -1.99281 -43.99 0.918977 85.7221 6.76245 69.1815 -3.33477 -6.48236 3.49899 0.904918 -2.66678 -14.6014 -5.39339 
